P3
# CREATOR: GIMP PNM Filter Version 1.1
64 64
255
254
254
254
255
255
255
253
253
253
255
255
255
0
0
0
1
1
1
0
0
0
0
0
0
0
0
0
0
0
0
0
0
0
0
0
0
0
0
0
0
0
0
0
0
0
1
1
1
0
0
0
0
0
0
0
0
0
255
255
255
255
255
255
0
0
0
0
0
0
255
255
255
1
1
1
0
0
0
1
1
1
254
254
254
1
1
1
0
0
0
1
1
1
0
0
0
1
1
1
0
0
0
1
1
1
0
0
0
0
0
0
0
0
0
1
1
1
0
0
0
255
255
255
1
1
1
0
0
0
255
255
255
254
254
254
0
0
0
0
0
0
0
0
0
0
0
0
2
2
2
0
0
0
1
1
1
0
0
0
0
0
0
0
0
0
0
0
0
0
0
0
0
0
0
0
0
0
0
0
0
255
255
255
255
255
255
254
254
254
255
255
255
254
254
254
0
0
0
0
0
0
1
1
1
0
0
0
253
253
253
255
255
255
253
253
253
0
0
0
255
255
255
255
255
255
0
0
0
1
1
1
0
0
0
255
255
255
0
0
0
0
0
0
0
0
0
254
254
254
253
253
253
137
137
137
0
0
0
254
254
254
255
255
255
0
0
0
1
1
1
251
251
251
255
255
255
0
0
0
0
0
0
255
255
255
253
253
253
0
0
0
0
0
0
255
255
255
255
255
255
0
0
0
0
0
0
0
0
0
255
255
255
253
253
253
1
1
1
0
0
0
255
255
255
253
253
253
1
1
1
252
252
252
255
255
255
255
255
255
0
0
0
255
255
255
253
253
253
1
1
1
0
0
0
0
0
0
255
255
255
255
255
255
0
0
0
1
1
1
253
253
253
0
0
0
1
1
1
0
0
0
0
0
0
255
255
255
0
0
0
0
0
0
1
1
1
0
0
0
253
253
253
255
255
255
255
255
255
0
0
0
252
252
252
255
255
255
255
255
255
0
0
0
255
255
255
255
255
255
0
0
0
0
0
0
252
252
252
255
255
255
255
255
255
0
0
0
253
253
253
255
255
255
253
253
253
1
1
1
0
0
0
255
255
255
254
254
254
1
1
1
255
255
255
251
251
251
255
255
255
0
0
0
253
253
253
255
255
255
255
255
255
1
1
1
0
0
0
255
255
255
255
255
255
0
0
0
0
0
0
255
255
255
255
255
255
254
254
254
0
0
0
255
255
255
254
254
254
255
255
255
0
0
0
254
254
254
255
255
255
251
251
251
0
0
0
255
255
255
254
254
254
255
255
255
0
0
0
252
252
252
255
255
255
203
203
203
0
0
0
0
0
0
0
0
0
0
0
0
255
255
255
255
255
255
251
251
251
1
1
1
255
255
255
254
254
254
255
255
255
0
0
0
255
255
255
255
255
255
183
183
183
1
1
1
254
254
254
251
251
251
0
0
0
0
0
0
255
255
255
250
250
250
0
0
0
0
0
0
255
255
255
255
255
255
255
255
255
0
0
0
1
1
1
255
255
255
254
254
254
0
0
0
1
1
1
255
255
255
255
255
255
1
1
1
255
255
255
254
254
254
254
254
254
0
0
0
253
253
253
255
255
255
253
253
253
1
1
1
255
255
255
253
253
253
255
255
255
255
255
255
1
1
1
253
253
253
254
254
254
255
255
255
0
0
0
255
255
255
255
255
255
0
0
0
1
1
1
255
255
255
255
255
255
0
0
0
2
2
2
255
255
255
251
251
251
255
255
255
255
255
255
255
255
255
0
0
0
0
0
0
252
252
252
255
255
255
255
255
255
0
0
0
0
0
0
253
253
253
255
255
255
0
0
0
0
0
0
253
253
253
255
255
255
0
0
0
1
1
1
255
255
255
254
254
254
2
2
2
0
0
0
255
255
255
253
253
253
173
173
173
0
0
0
0
0
0
252
252
252
1
1
1
0
0
0
0
0
0
255
255
255
0
0
0
0
0
0
1
1
1
253
253
253
0
0
0
1
1
1
0
0
0
255
255
255
255
255
255
1
1
1
241
241
241
255
255
255
253
253
253
1
1
1
0
0
0
255
255
255
255
255
255
0
0
0
1
1
1
255
255
255
252
252
252
3
3
3
0
0
0
253
253
253
255
255
255
0
0
0
0
0
0
253
253
253
255
255
255
253
253
253
1
1
1
255
255
255
255
255
255
1
1
1
0
0
0
0
0
0
0
0
0
255
255
255
255
255
255
0
0
0
1
1
1
255
255
255
255
255
255
0
0
0
0
0
0
253
253
253
255
255
255
1
1
1
0
0
0
255
255
255
255
255
255
0
0
0
0
0
0
253
253
253
255
255
255
0
0
0
0
0
0
254
254
254
255
255
255
1
1
1
0
0
0
225
225
225
255
255
255
0
0
0
0
0
0
255
255
255
252
252
252
255
255
255
0
0
0
253
253
253
255
255
255
255
255
255
0
0
0
252
252
252
255
255
255
254
254
254
0
0
0
255
255
255
253
253
253
255
255
255
1
1
1
0
0
0
254
254
254
241
241
241
0
0
0
0
0
0
253
253
253
255
255
255
0
0
0
0
0
0
255
255
255
255
255
255
0
0
0
0
0
0
255
255
255
255
255
255
0
0
0
253
253
253
255
255
255
0
0
0
0
0
0
255
255
255
253
253
253
241
241
241
0
0
0
0
0
0
254
254
254
255
255
255
1
1
1
1
1
1
255
255
255
253
253
253
2
2
2
0
0
0
255
255
255
253
253
253
0
0
0
2
2
2
253
253
253
255
255
255
163
163
163
0
0
0
0
0
0
255
255
255
0
0
0
0
0
0
253
253
253
253
253
253
0
0
0
0
0
0
255
255
255
255
255
255
1
1
1
0
0
0
255
255
255
253
253
253
255
255
255
2
2
2
253
253
253
255
255
255
255
255
255
224
224
224
1
1
1
250
250
250
253
253
253
0
0
0
2
2
2
255
255
255
177
177
177
0
0
0
0
0
0
254
254
254
255
255
255
218
218
218
0
0
0
253
253
253
255
255
255
0
0
0
0
0
0
255
255
255
253
253
253
255
255
255
1
1
1
0
0
0
0
0
0
255
255
255
255
255
255
253
253
253
0
0
0
0
0
0
253
253
253
255
255
255
0
0
0
0
0
0
254
254
254
255
255
255
0
0
0
0
0
0
254
254
254
255
255
255
0
0
0
0
0
0
255
255
255
255
255
255
0
0
0
0
0
0
1
1
1
255
255
255
0
0
0
3
3
3
145
144
145
255
255
255
0
0
0
0
0
0
255
255
255
253
253
253
0
0
0
0
0
0
255
255
255
255
255
255
255
255
255
0
0
0
255
255
255
255
255
255
254
254
254
1
1
1
0
0
0
255
255
255
255
255
255
0
0
0
0
0
0
255
255
255
253
253
253
0
0
0
0
0
0
255
255
255
254
254
254
165
165
165
1
1
1
255
255
255
255
255
255
0
0
0
0
0
0
255
255
255
255
255
255
238
238
238
0
0
0
0
0
0
0
0
0
255
255
255
255
255
255
0
0
0
0
0
0
255
255
255
253
253
253
1
1
1
0
0
0
253
253
253
255
255
255
0
0
0
0
0
0
254
254
254
255
255
255
0
0
0
0
0
0
253
253
253
255
255
255
0
0
0
0
0
0
255
255
255
253
253
253
0
0
0
0
0
0
255
255
255
255
255
255
0
0
0
0
0
0
255
255
255
255
255
255
255
255
255
0
0
0
255
255
255
255
255
255
255
255
255
0
0
0
255
255
255
253
253
253
255
255
255
0
0
0
0
0
0
255
255
255
252
252
252
0
0
0
0
0
0
255
255
255
253
253
253
0
0
0
0
0
0
255
255
255
255
255
255
1
1
1
0
0
0
255
255
255
255
255
255
1
1
1
0
0
0
255
255
255
254
254
254
0
0
0
255
255
255
255
255
255
0
0
0
0
0
0
255
255
255
253
253
253
255
255
255
0
0
0
1
1
1
253
253
253
254
254
254
0
0
0
0
0
0
255
255
255
255
255
255
253
253
253
3
3
3
253
253
253
254
254
254
255
255
255
1
1
1
253
253
253
255
255
255
255
255
255
0
0
0
2
2
2
253
253
253
1
1
1
0
0
0
0
0
0
255
255
255
0
0
0
1
1
1
0
0
0
255
255
255
255
255
255
1
1
1
0
0
0
253
253
253
254
254
254
1
1
1
221
221
221
255
255
255
254
254
254
0
0
0
255
255
255
255
255
255
254
254
254
0
0
0
0
0
0
255
255
255
255
255
255
1
1
1
0
0
0
255
255
255
254
254
254
255
255
255
0
0
0
255
255
255
252
252
252
255
255
255
0
0
0
255
255
255
255
255
255
253
253
253
0
0
0
1
1
1
0
0
0
255
255
255
254
254
254
0
0
0
1
1
1
254
254
254
255
255
255
0
0
0
0
0
0
255
255
255
253
253
253
217
217
217
1
1
1
253
253
253
254
254
254
0
0
0
0
0
0
255
255
255
251
251
251
1
1
1
1
1
1
0
0
0
252
252
252
1
1
1
0
0
0
0
0
0
255
255
255
0
0
0
0
0
0
0
0
0
253
253
253
255
255
255
0
0
0
253
253
253
255
255
255
255
255
255
0
0
0
253
253
253
253
253
253
255
255
255
1
1
1
0
0
0
253
253
253
255
255
255
0
0
0
2
2
2
255
255
255
255
255
255
0
0
0
0
0
0
255
255
255
255
255
255
232
232
232
0
0
0
255
255
255
255
255
255
1
1
1
0
0
0
252
252
252
255
255
255
0
0
0
253
253
253
255
255
255
0
0
0
1
1
1
252
252
252
255
255
255
0
0
0
0
0
0
255
255
255
255
255
255
1
1
1
0
0
0
254
254
254
255
255
255
255
255
255
0
0
0
255
255
255
255
255
255
255
255
255
0
0
0
0
0
0
255
255
255
255
255
255
0
0
0
2
2
2
254
254
254
253
253
253
0
0
0
0
0
0
255
255
255
65
65
65
0
0
0
0
0
0
252
252
252
254
254
254
0
0
0
0
0
0
252
252
252
255
255
255
0
0
0
229
229
229
255
255
255
254
254
254
0
0
0
1
1
1
255
255
255
255
255
255
0
0
0
0
0
0
253
253
253
254
254
254
1
1
1
1
1
1
254
254
254
255
255
255
254
254
254
0
0
0
255
255
255
252
252
252
252
252
252
1
1
1
255
255
255
250
250
250
255
255
255
255
255
255
255
255
255
0
0
0
0
0
0
255
255
255
255
255
255
255
255
255
2
2
2
0
0
0
253
253
253
253
253
253
0
0
0
1
1
1
254
254
254
255
255
255
253
253
253
0
0
0
253
253
253
255
255
255
0
0
0
0
0
0
255
255
255
254
254
254
1
1
1
0
0
0
255
255
255
255
255
255
0
0
0
1
1
1
254
254
254
255
255
255
0
0
0
0
0
0
1
1
1
255
255
255
253
253
253
3
3
3
0
0
0
255
255
255
255
255
255
0
0
0
251
251
251
255
255
255
255
255
255
0
0
0
253
253
253
254
254
254
254
254
254
0
0
0
138
138
138
255
255
255
252
252
252
0
0
0
0
0
0
254
254
254
254
254
254
255
255
255
0
0
0
254
254
254
254
254
254
0
0
0
0
0
0
255
255
255
254
254
254
184
184
184
0
0
0
0
0
0
0
0
0
255
255
255
250
250
250
0
0
0
2
2
2
255
255
255
255
255
255
255
255
255
1
1
1
255
255
255
253
253
253
125
125
125
0
0
0
0
0
0
255
255
255
0
0
0
0
0
0
0
0
0
255
255
255
0
0
0
0
0
0
3
3
3
255
255
255
0
0
0
0
0
0
1
1
1
254
254
254
253
253
253
0
0
0
255
255
255
255
255
255
253
253
253
0
0
0
0
0
0
255
255
255
253
253
253
1
1
1
0
0
0
255
255
255
255
255
255
0
0
0
0
0
0
255
255
255
255
255
255
0
0
0
0
0
0
255
255
255
252
252
252
255
255
255
0
0
0
255
255
255
254
254
254
0
0
0
0
0
0
1
1
1
255
255
255
0
0
0
1
1
1
0
0
0
255
255
255
0
0
0
0
0
0
4
4
4
0
0
0
0
0
0
255
255
255
255
255
255
255
255
255
0
0
0
254
254
254
255
255
255
253
253
253
0
0
0
255
255
255
254
254
254
255
255
255
255
255
255
253
253
253
255
255
255
255
255
255
253
253
253
0
0
0
255
255
255
255
255
255
1
1
1
0
0
0
254
254
254
255
255
255
0
0
0
0
0
0
255
255
255
251
251
251
5
5
5
0
0
0
255
255
255
255
255
255
255
255
255
254
254
254
255
255
255
255
255
255
250
250
250
2
2
2
255
255
255
255
255
255
255
255
255
0
0
0
253
253
253
255
255
255
254
254
254
0
0
0
253
253
253
255
255
255
255
255
255
0
0
0
255
255
255
254
254
254
255
255
255
255
255
255
249
249
249
255
255
255
254
254
254
253
253
253
0
0
0
254
254
254
255
255
255
255
255
255
252
252
252
0
0
0
0
0
0
254
254
254
255
255
255
254
254
254
0
0
0
255
255
255
255
255
255
255
255
255
2
2
2
0
0
0
255
255
255
255
255
255
0
0
0
0
0
0
255
255
255
254
254
254
2
2
2
0
0
0
254
254
254
255
255
255
0
0
0
0
0
0
255
255
255
254
254
254
0
0
0
0
0
0
0
0
0
255
255
255
0
0
0
0
0
0
0
0
0
254
254
254
0
0
0
0
0
0
220
220
220
255
255
255
1
1
1
0
0
0
255
255
255
254
254
254
255
255
255
0
0
0
255
255
255
255
255
255
253
253
253
0
0
0
0
0
0
254
254
254
255
255
255
0
0
0
0
0
0
253
253
253
255
255
255
0
0
0
3
3
3
254
254
254
255
255
255
0
0
0
0
0
0
255
255
255
253
253
253
252
252
252
0
0
0
0
0
0
1
1
1
253
253
253
255
255
255
255
255
255
0
0
0
255
255
255
252
252
252
255
255
255
0
0
0
0
0
0
255
255
255
255
255
255
0
0
0
0
0
0
254
254
254
0
0
0
0
0
0
219
219
219
255
255
255
184
184
184
0
0
0
254
254
254
255
255
255
253
253
253
0
0
0
0
0
0
0
0
0
255
255
255
0
0
0
0
0
0
255
255
255
254
254
254
1
1
1
0
0
0
255
255
255
255
255
255
0
0
0
5
5
5
250
250
250
255
255
255
0
0
0
0
0
0
254
254
254
255
255
255
255
255
255
0
0
0
0
0
0
255
255
255
255
255
255
0
0
0
0
0
0
255
255
255
0
0
0
0
0
0
0
0
0
255
255
255
0
0
0
0
0
0
255
255
255
255
255
255
0
0
0
0
0
0
0
0
0
0
0
0
0
0
0
255
255
255
255
255
255
253
253
253
0
0
0
253
253
253
255
255
255
0
0
0
1
1
1
249
249
249
254
254
254
144
144
144
2
2
2
255
255
255
253
253
253
0
0
0
0
0
0
254
254
254
253
253
253
0
0
0
255
255
255
255
255
255
254
254
254
255
255
255
254
254
254
255
255
255
254
254
254
255
255
255
0
0
0
171
171
171
253
253
253
255
255
255
0
0
0
255
255
255
253
253
253
255
255
255
0
0
0
253
253
253
255
255
255
254
254
254
0
0
0
255
255
255
255
255
255
254
254
254
255
255
255
0
0
0
253
253
253
255
255
255
255
255
255
0
0
0
254
254
254
253
253
253
0
0
0
0
0
0
255
255
255
253
253
253
0
0
0
0
0
0
255
255
255
255
255
255
254
254
254
255
255
255
253
253
253
2
2
2
0
0
0
254
254
254
255
255
255
254
254
254
1
1
1
0
0
0
253
253
253
255
255
255
0
0
0
5
5
5
255
255
255
253
253
253
1
1
1
1
1
1
254
254
254
255
255
255
0
0
0
1
1
1
255
255
255
255
255
255
0
0
0
0
0
0
0
0
0
255
255
255
0
0
0
0
0
0
1
1
1
251
251
251
0
0
0
2
2
2
0
0
0
255
255
255
1
1
1
0
0
0
0
0
0
255
255
255
255
255
255
0
0
0
224
224
224
254
254
254
255
255
255
0
0
0
0
0
0
255
255
255
255
255
255
0
0
0
0
0
0
255
255
255
253
253
253
0
0
0
0
0
0
255
255
255
255
255
255
0
0
0
0
0
0
254
254
254
254
254
254
0
0
0
1
1
1
253
253
253
253
253
253
0
0
0
0
0
0
0
0
0
1
1
1
255
255
255
255
255
255
1
1
1
0
0
0
254
254
254
255
255
255
186
186
186
0
0
0
253
253
253
253
253
253
0
0
0
0
0
0
253
253
253
255
255
255
0
0
0
0
0
0
253
253
253
255
255
255
0
0
0
0
0
0
255
255
255
255
255
255
0
0
0
0
0
0
0
0
0
252
252
252
4
4
4
0
0
0
226
226
226
254
254
254
253
253
253
0
0
0
255
255
255
255
255
255
255
255
255
0
0
0
255
255
255
255
255
255
254
254
254
0
0
0
253
253
253
255
255
255
255
255
255
0
0
0
0
0
0
255
255
255
255
255
255
0
0
0
1
1
1
255
255
255
253
253
253
0
0
0
1
1
1
252
252
252
255
255
255
1
1
1
0
0
0
254
254
254
255
255
255
0
0
0
255
255
255
255
255
255
0
0
0
0
0
0
255
255
255
253
253
253
0
0
0
2
2
2
0
0
0
255
255
255
253
253
253
0
0
0
0
0
0
254
254
254
255
255
255
0
0
0
0
0
0
255
255
255
254
254
254
0
0
0
255
255
255
255
255
255
255
255
255
254
254
254
255
255
255
242
242
242
255
255
255
0
0
0
0
0
0
251
251
251
255
255
255
0
0
0
0
0
0
255
255
255
255
255
255
255
255
255
0
0
0
253
253
253
253
253
253
54
54
54
0
0
0
255
255
255
255
255
255
0
0
0
255
255
255
253
253
253
253
253
253
177
176
177
0
0
0
167
167
167
252
252
252
0
0
0
0
0
0
163
163
163
255
255
255
255
255
255
0
0
0
255
255
255
254
254
254
254
254
254
1
1
1
251
251
251
255
255
255
255
255
255
253
253
253
2
2
2
0
0
0
0
0
0
255
255
255
254
254
254
255
255
255
0
0
0
0
0
0
255
255
255
255
255
255
1
1
1
0
0
0
255
255
255
253
253
253
255
255
255
0
0
0
254
254
254
255
255
255
167
167
167
0
0
0
253
253
253
255
255
255
3
3
3
0
0
0
0
0
0
255
255
255
0
0
0
0
0
0
3
3
3
254
254
254
0
0
0
0
0
0
0
0
0
254
254
254
253
253
253
3
3
3
52
52
52
255
255
255
255
255
255
0
0
0
253
253
253
255
255
255
255
255
255
0
0
0
0
0
0
255
255
255
253
253
253
0
0
0
1
1
1
255
255
255
255
255
255
0
0
0
0
0
0
255
255
255
255
255
255
0
0
0
0
0
0
253
253
253
255
255
255
1
1
1
1
1
1
252
252
252
255
255
255
166
166
166
0
0
0
2
2
2
0
0
0
254
254
254
255
255
255
0
0
0
1
1
1
254
254
254
254
254
254
0
0
0
0
0
0
255
255
255
255
255
255
0
0
0
1
1
1
253
253
253
255
255
255
0
0
0
0
0
0
255
255
255
255
255
255
0
0
0
0
0
0
0
0
0
255
255
255
0
0
0
1
1
1
253
253
253
254
254
254
0
0
0
0
0
0
254
254
254
255
255
255
255
255
255
0
0
0
252
252
252
253
253
253
255
255
255
0
0
0
255
255
255
255
255
255
253
253
253
0
0
0
254
254
254
255
255
255
253
253
253
1
1
1
0
0
0
255
255
255
242
242
242
1
1
1
0
0
0
255
255
255
255
255
255
0
0
0
0
0
0
255
255
255
255
255
255
0
0
0
0
0
0
254
254
254
255
255
255
0
0
0
255
255
255
254
254
254
0
0
0
1
1
1
255
255
255
254
254
254
253
253
253
0
0
0
0
0
0
255
255
255
255
255
255
0
0
0
0
0
0
255
255
255
255
255
255
255
255
255
0
0
0
255
255
255
254
254
254
255
255
255
0
0
0
253
253
253
255
255
255
255
255
255
0
0
0
0
0
0
255
255
255
0
0
0
0
0
0
1
1
1
255
255
255
0
0
0
1
1
1
0
0
0
254
254
254
255
255
255
0
0
0
0
0
0
255
255
255
254
254
254
0
0
0
228
228
228
255
255
255
254
254
254
1
1
1
0
0
0
253
253
253
255
255
255
0
0
0
0
0
0
255
255
255
255
255
255
0
0
0
0
0
0
254
254
254
254
254
254
255
255
255
0
0
0
255
255
255
255
255
255
245
245
245
0
0
0
255
255
255
254
254
254
254
254
254
0
0
0
0
0
0
0
0
0
255
255
255
254
254
254
0
0
0
0
0
0
255
255
255
255
255
255
0
0
0
0
0
0
255
255
255
253
253
253
255
255
255
0
0
0
255
255
255
253
253
253
215
215
215
0
0
0
254
254
254
254
254
254
109
109
109
1
1
1
0
0
0
253
253
253
0
0
0
0
0
0
0
0
0
255
255
255
0
0
0
0
0
0
0
0
0
255
255
255
254
254
254
0
0
0
215
215
215
255
255
255
253
253
253
1
1
1
255
255
255
254
254
254
255
255
255
1
1
1
0
0
0
255
255
255
251
251
251
0
0
0
0
0
0
253
253
253
255
255
255
0
0
0
0
0
0
254
254
254
255
255
255
254
254
254
0
0
0
255
255
255
255
255
255
0
0
0
1
1
1
254
254
254
254
254
254
0
0
0
255
255
255
253
253
253
0
0
0
1
1
1
255
255
255
255
255
255
0
0
0
0
0
0
255
255
255
253
253
253
0
0
0
0
0
0
255
255
255
255
255
255
255
255
255
2
2
2
255
255
255
255
255
255
253
253
253
1
1
1
253
253
253
255
255
255
255
255
255
0
0
0
1
1
1
255
255
255
253
253
253
0
0
0
0
0
0
254
254
254
3
3
3
0
0
0
0
0
0
253
253
253
255
255
255
0
0
0
223
223
223
255
255
255
253
253
253
1
1
1
254
254
254
255
255
255
254
254
254
0
0
0
6
6
6
251
251
251
255
255
255
0
0
0
0
0
0
255
255
255
255
255
255
0
0
0
0
0
0
255
255
255
255
255
255
255
255
255
1
1
1
255
255
255
254
254
254
255
255
255
0
0
0
255
255
255
255
255
255
0
0
0
255
255
255
255
255
255
0
0
0
0
0
0
253
253
253
253
253
253
252
252
252
3
3
3
0
0
0
255
255
255
255
255
255
0
0
0
2
2
2
255
255
255
252
252
252
255
255
255
0
0
0
254
254
254
255
255
255
218
218
218
0
0
0
253
253
253
253
253
253
0
0
0
0
0
0
255
255
255
255
255
255
0
0
0
0
0
0
0
0
0
254
254
254
253
253
253
1
1
1
0
0
0
254
254
254
254
254
254
1
1
1
0
0
0
254
254
254
255
255
255
1
1
1
236
236
236
255
255
255
255
255
255
0
0
0
255
255
255
254
254
254
255
255
255
0
0
0
0
0
0
254
254
254
255
255
255
0
0
0
2
2
2
249
249
249
255
255
255
255
255
255
0
0
0
255
255
255
254
254
254
0
0
0
0
0
0
255
255
255
255
255
255
254
254
254
255
255
255
0
0
0
1
1
1
254
254
254
255
255
255
1
1
1
0
0
0
255
255
255
254
254
254
255
255
255
0
0
0
252
252
252
253
253
253
255
255
255
0
0
0
1
1
1
254
254
254
1
1
1
0
0
0
1
1
1
255
255
255
2
2
2
0
0
0
0
0
0
255
255
255
0
0
0
1
1
1
93
93
93
255
255
255
251
251
251
1
1
1
254
254
254
254
254
254
255
255
255
0
0
0
0
0
0
255
255
255
253
253
253
0
0
0
0
0
0
255
255
255
255
255
255
0
0
0
0
0
0
255
255
255
255
255
255
0
0
0
0
0
0
255
255
255
253
253
253
0
0
0
1
1
1
255
255
255
255
255
255
0
0
0
0
0
0
254
254
254
255
255
255
0
0
0
1
1
1
0
0
0
253
253
253
0
0
0
1
1
1
0
0
0
0
0
0
0
0
0
255
255
255
253
253
253
254
254
254
0
0
0
255
255
255
253
253
253
255
255
255
255
255
255
255
255
255
255
255
255
254
254
254
0
0
0
1
1
1
255
255
255
254
254
254
254
254
254
3
3
3
253
253
253
254
254
254
0
0
0
1
1
1
255
255
255
255
255
255
0
0
0
0
0
0
255
255
255
255
255
255
1
1
1
1
1
1
255
255
255
255
255
255
253
253
253
2
2
2
0
0
0
254
254
254
255
255
255
0
0
0
255
255
255
254
254
254
255
255
255
0
0
0
254
254
254
255
255
255
255
255
255
0
0
0
255
255
255
254
254
254
255
255
255
1
1
1
253
253
253
255
255
255
254
254
254
251
251
251
2
2
2
254
254
254
254
254
254
219
219
219
0
0
0
255
255
255
255
255
255
254
254
254
251
251
251
1
1
1
0
0
0
255
255
255
255
255
255
255
255
255
0
0
0
0
0
0
255
255
255
254
254
254
0
0
0
0
0
0
255
255
255
255
255
255
0
0
0
0
0
0
255
255
255
255
255
255
0
0
0
0
0
0
255
255
255
255
255
255
2
2
2
0
0
0
252
252
252
255
255
255
1
1
1
0
0
0
255
255
255
251
251
251
0
0
0
0
0
0
0
0
0
255
255
255
255
255
255
0
0
0
0
0
0
255
255
255
253
253
253
1
1
1
253
253
253
255
255
255
0
0
0
0
0
0
252
252
252
255
255
255
255
255
255
0
0
0
0
0
0
255
255
255
255
255
255
1
1
1
0
0
0
252
252
252
255
255
255
4
4
4
0
0
0
255
255
255
254
254
254
5
5
5
0
0
0
255
255
255
254
254
254
252
252
252
3
3
3
0
0
0
1
1
1
254
254
254
255
255
255
254
254
254
1
1
1
0
0
0
255
255
255
253
253
253
1
1
1
1
1
1
253
253
253
255
255
255
0
0
0
0
0
0
255
255
255
0
0
0
0
0
0
0
0
0
254
254
254
0
0
0
0
0
0
0
0
0
255
255
255
255
255
255
0
0
0
0
0
0
254
254
254
255
255
255
1
1
1
0
0
0
255
255
255
254
254
254
0
0
0
0
0
0
255
255
255
252
252
252
0
0
0
1
1
1
255
255
255
253
253
253
0
0
0
0
0
0
255
255
255
255
255
255
253
253
253
0
0
0
0
0
0
253
253
253
255
255
255
0
0
0
0
0
0
255
255
255
1
1
1
0
0
0
0
0
0
255
255
255
0
0
0
1
1
1
138
138
138
255
255
255
0
0
0
0
0
0
0
0
0
0
0
0
0
0
0
254
254
254
255
255
255
255
255
255
0
0
0
255
255
255
255
255
255
255
255
255
0
0
0
253
253
253
255
255
255
176
176
176
1
1
1
254
254
254
253
253
253
1
1
1
0
0
0
255
255
255
254
254
254
255
255
255
0
0
0
255
255
255
255
255
255
254
254
254
0
0
0
0
0
0
254
254
254
255
255
255
1
1
1
253
253
253
255
255
255
255
255
255
0
0
0
255
255
255
255
255
255
255
255
255
0
0
0
252
252
252
255
255
255
255
255
255
1
1
1
255
255
255
253
253
253
255
255
255
255
255
255
0
0
0
254
254
254
255
255
255
255
255
255
0
0
0
255
255
255
253
253
253
0
0
0
1
1
1
255
255
255
255
255
255
1
1
1
0
0
0
255
255
255
254
254
254
255
255
255
254
254
254
255
255
255
0
0
0
0
0
0
255
255
255
255
255
255
255
255
255
0
0
0
1
1
1
255
255
255
255
255
255
0
0
0
0
0
0
255
255
255
254
254
254
0
0
0
1
1
1
255
255
255
255
255
255
250
250
250
0
0
0
255
255
255
254
254
254
0
0
0
1
1
1
0
0
0
255
255
255
0
0
0
1
1
1
1
1
1
252
252
252
0
0
0
1
1
1
0
0
0
255
255
255
1
1
1
0
0
0
1
1
1
253
253
253
254
254
254
0
0
0
255
255
255
255
255
255
255
255
255
0
0
0
0
0
0
255
255
255
253
253
253
1
1
1
0
0
0
254
254
254
255
255
255
0
0
0
0
0
0
253
253
253
255
255
255
0
0
0
0
0
0
255
255
255
255
255
255
255
255
255
0
0
0
255
255
255
255
255
255
2
2
2
0
0
0
0
0
0
0
0
0
255
255
255
255
255
255
0
0
0
3
3
3
254
254
254
255
255
255
0
0
0
0
0
0
253
253
253
255
255
255
1
1
1
1
1
1
254
254
254
255
255
255
0
0
0
0
0
0
255
255
255
255
255
255
0
0
0
1
1
1
253
253
253
255
255
255
0
0
0
1
1
1
0
0
0
253
253
253
249
249
249
0
0
0
0
0
0
255
255
255
252
252
252
0
0
0
187
187
187
253
253
253
255
255
255
0
0
0
253
253
253
255
255
255
253
253
253
0
0
0
253
253
253
255
255
255
255
255
255
0
0
0
0
0
0
255
255
255
254
254
254
0
0
0
0
0
0
254
254
254
255
255
255
0
0
0
1
1
1
255
255
255
252
252
252
0
0
0
0
0
0
255
255
255
253
253
253
0
0
0
255
255
255
253
253
253
1
1
1
1
1
1
253
253
253
255
255
255
1
1
1
0
0
0
255
255
255
255
255
255
255
255
255
0
0
0
255
255
255
255
255
255
255
255
255
0
0
0
255
255
255
254
254
254
255
255
255
0
0
0
255
255
255
253
253
253
253
253
253
2
2
2
253
253
253
252
252
252
255
255
255
0
0
0
0
0
0
255
255
255
255
255
255
0
0
0
2
2
2
253
253
253
255
255
255
2
2
2
0
0
0
255
255
255
254
254
254
0
0
0
0
0
0
255
255
255
255
255
255
0
0
0
255
255
255
252
252
252
255
255
255
0
0
0
0
0
0
255
255
255
254
254
254
0
0
0
0
0
0
253
253
253
255
255
255
255
255
255
0
0
0
255
255
255
255
255
255
255
255
255
0
0
0
253
253
253
255
255
255
221
221
221
253
253
253
255
255
255
0
0
0
0
0
0
255
255
255
253
253
253
255
255
255
1
1
1
0
0
0
254
254
254
253
253
253
1
1
1
0
0
0
254
254
254
255
255
255
255
255
255
0
0
0
255
255
255
255
255
255
253
253
253
0
0
0
255
255
255
255
255
255
0
0
0
1
1
1
1
1
1
254
254
254
0
0
0
0
0
0
0
0
0
254
254
254
0
0
0
0
0
0
0
0
0
255
255
255
0
0
0
0
0
0
139
139
139
254
254
254
253
253
253
1
1
1
253
253
253
253
253
253
253
253
253
1
1
1
0
0
0
255
255
255
255
255
255
0
0
0
0
0
0
255
255
255
254
254
254
1
1
1
0
0
0
255
255
255
254
254
254
255
255
255
1
1
1
251
251
251
253
253
253
4
4
4
0
0
0
255
255
255
251
251
251
183
183
183
1
1
1
1
1
1
0
0
0
252
252
252
255
255
255
1
1
1
0
0
0
254
254
254
255
255
255
0
0
0
0
0
0
255
255
255
252
252
252
1
1
1
0
0
0
253
253
253
255
255
255
0
0
0
0
0
0
255
255
255
254
254
254
0
0
0
0
0
0
253
253
253
254
254
254
0
0
0
0
0
0
253
253
253
255
255
255
0
0
0
2
2
2
253
253
253
255
255
255
253
253
253
0
0
0
255
255
255
250
250
250
255
255
255
2
2
2
253
253
253
254
254
254
255
255
255
0
0
0
253
253
253
253
253
253
255
255
255
0
0
0
0
0
0
255
255
255
184
184
184
0
0
0
0
0
0
255
255
255
1
1
1
0
0
0
0
0
0
255
255
255
255
255
255
0
0
0
0
0
0
255
255
255
255
255
255
1
1
1
255
255
255
250
250
250
1
1
1
0
0
0
255
255
255
254
254
254
254
254
254
0
0
0
0
0
0
253
253
253
254
254
254
0
0
0
0
0
0
255
255
255
255
255
255
253
253
253
3
3
3
255
255
255
255
255
255
255
255
255
0
0
0
254
254
254
255
255
255
255
255
255
1
1
1
255
255
255
255
255
255
1
1
1
1
1
1
0
0
0
255
255
255
0
0
0
0
0
0
2
2
2
254
254
254
255
255
255
0
0
0
1
1
1
253
253
253
253
253
253
0
0
0
255
255
255
250
250
250
255
255
255
0
0
0
0
0
0
253
253
253
255
255
255
0
0
0
0
0
0
255
255
255
255
255
255
2
2
2
0
0
0
253
253
253
255
255
255
255
255
255
0
0
0
254
254
254
255
255
255
255
255
255
0
0
0
255
255
255
255
255
255
111
111
111
3
3
3
0
0
0
0
0
0
255
255
255
254
254
254
0
0
0
1
1
1
255
255
255
253
253
253
0
0
0
0
0
0
253
253
253
255
255
255
254
254
254
0
0
0
255
255
255
255
255
255
253
253
253
0
0
0
253
253
253
255
255
255
254
254
254
0
0
0
0
0
0
253
253
253
253
253
253
0
0
0
0
0
0
255
255
255
1
1
1
0
0
0
0
0
0
255
255
255
254
254
254
0
0
0
2
2
2
253
253
253
255
255
255
0
0
0
0
0
0
255
255
255
255
255
255
0
0
0
1
1
1
255
255
255
255
255
255
0
0
0
0
0
0
255
255
255
254
254
254
0
0
0
0
0
0
253
253
253
255
255
255
253
253
253
1
1
1
255
255
255
254
254
254
254
254
254
0
0
0
0
0
0
255
255
255
0
0
0
220
220
220
236
236
236
0
0
0
0
0
0
254
254
254
255
255
255
1
1
1
0
0
0
255
255
255
255
255
255
0
0
0
0
0
0
255
255
255
254
254
254
0
0
0
1
1
1
255
255
255
253
253
253
244
244
244
0
0
0
253
253
253
255
255
255
176
176
176
0
0
0
1
1
1
255
255
255
0
0
0
0
0
0
0
0
0
253
253
253
0
0
0
0
0
0
255
255
255
253
253
253
255
255
255
0
0
0
253
253
253
255
255
255
255
255
255
0
0
0
1
1
1
253
253
253
255
255
255
1
1
1
0
0
0
254
254
254
254
254
254
1
1
1
0
0
0
255
255
255
255
255
255
1
1
1
0
0
0
253
253
253
255
255
255
254
254
254
0
0
0
255
255
255
255
255
255
222
222
222
1
1
1
254
254
254
255
255
255
0
0
0
254
254
254
254
254
254
1
1
1
0
0
0
255
255
255
254
254
254
255
255
255
0
0
0
0
0
0
255
255
255
254
254
254
0
0
0
2
2
2
253
253
253
255
255
255
254
254
254
0
0
0
253
253
253
255
255
255
254
254
254
3
3
3
254
254
254
253
253
253
145
145
145
0
0
0
255
255
255
255
255
255
0
0
0
0
0
0
0
0
0
254
254
254
255
255
255
1
1
1
0
0
0
255
255
255
255
255
255
0
0
0
0
0
0
255
255
255
255
255
255
0
0
0
253
253
253
255
255
255
255
255
255
0
0
0
255
255
255
254
254
254
255
255
255
0
0
0
0
0
0
255
255
255
255
255
255
255
255
255
1
1
1
253
253
253
254
254
254
255
255
255
0
0
0
255
255
255
254
254
254
255
255
255
1
1
1
253
253
253
253
253
253
255
255
255
243
243
243
0
0
0
0
0
0
255
255
255
255
255
255
0
0
0
0
0
0
255
255
255
255
255
255
0
0
0
0
0
0
253
253
253
255
255
255
0
0
0
0
0
0
255
255
255
255
255
255
0
0
0
0
0
0
0
0
0
255
255
255
0
0
0
0
0
0
0
0
0
255
255
255
0
0
0
0
0
0
0
0
0
255
255
255
0
0
0
0
0
0
252
252
252
255
255
255
254
254
254
0
0
0
240
240
240
255
255
255
255
255
255
0
0
0
1
1
1
254
254
254
251
251
251
1
1
1
0
0
0
255
255
255
255
255
255
0
0
0
0
0
0
253
253
253
255
255
255
0
0
0
1
1
1
253
253
253
254
254
254
1
1
1
0
0
0
255
255
255
254
254
254
0
0
0
0
0
0
0
0
0
255
255
255
0
0
0
0
0
0
4
4
4
0
0
0
0
0
0
255
255
255
255
255
255
253
253
253
1
1
1
251
251
251
255
255
255
221
221
221
0
0
0
255
255
255
255
255
255
255
255
255
253
253
253
254
254
254
255
255
255
255
255
255
2
2
2
0
0
0
255
255
255
255
255
255
1
1
1
1
1
1
255
255
255
253
253
253
0
0
0
1
1
1
254
254
254
255
255
255
0
0
0
255
255
255
252
252
252
255
255
255
254
254
254
0
0
0
253
253
253
254
254
254
255
255
255
0
0
0
255
255
255
255
255
255
252
252
252
1
1
1
255
255
255
254
254
254
255
255
255
0
0
0
255
255
255
254
254
254
255
255
255
1
1
1
253
253
253
255
255
255
253
253
253
0
0
0
255
255
255
255
255
255
255
255
255
1
1
1
0
0
0
255
255
255
254
254
254
255
255
255
252
252
252
0
0
0
1
1
1
253
253
253
254
254
254
255
255
255
0
0
0
0
0
0
255
255
255
255
255
255
0
0
0
0
0
0
255
255
255
254
254
254
0
0
0
2
2
2
253
253
253
255
255
255
0
0
0
0
0
0
255
255
255
252
252
252
0
0
0
0
0
0
255
255
255
255
255
255
4
4
4
0
0
0
255
255
255
255
255
255
0
0
0
0
0
0
254
254
254
253
253
253
253
253
253
2
2
2
0
0
0
252
252
252
255
255
255
0
0
0
255
255
255
253
253
253
185
185
185
1
1
1
254
254
254
255
255
255
253
253
253
1
1
1
0
0
0
255
255
255
255
255
255
0
0
0
1
1
1
255
255
255
254
254
254
0
0
0
0
0
0
253
253
253
254
254
254
1
1
1
0
0
0
255
255
255
254
254
254
255
255
255
0
0
0
0
0
0
0
0
0
255
255
255
255
255
255
253
253
253
0
0
0
0
0
0
255
255
255
253
253
253
1
1
1
0
0
0
254
254
254
255
255
255
1
1
1
0
0
0
255
255
255
0
0
0
0
0
0
0
0
0
255
255
255
3
3
3
0
0
0
0
0
0
253
253
253
255
255
255
0
0
0
0
0
0
253
253
253
255
255
255
0
0
0
0
0
0
1
1
1
255
255
255
0
0
0
0
0
0
253
253
253
255
255
255
0
0
0
0
0
0
253
253
253
255
255
255
0
0
0
0
0
0
253
253
253
253
253
253
255
255
255
0
0
0
0
0
0
255
255
255
255
255
255
1
1
1
0
0
0
254
254
254
255
255
255
0
0
0
0
0
0
255
255
255
0
0
0
0
0
0
0
0
0
255
255
255
0
0
0
0
0
0
0
0
0
0
0
0
1
1
1
252
252
252
255
255
255
255
255
255
0
0
0
255
255
255
255
255
255
254
254
254
0
0
0
255
255
255
253
253
253
0
0
0
0
0
0
255
255
255
253
253
253
255
255
255
255
255
255
254
254
254
255
255
255
252
252
252
255
255
255
255
255
255
254
254
254
255
255
255
0
0
0
1
1
1
255
255
255
254
254
254
0
0
0
255
255
255
255
255
255
254
254
254
1
1
1
253
253
253
255
255
255
255
255
255
0
0
0
254
254
254
255
255
255
255
255
255
1
1
1
255
255
255
255
255
255
255
255
255
253
253
253
1
1
1
255
255
255
253
253
253
254
254
254
0
0
0
255
255
255
255
255
255
0
0
0
1
1
1
253
253
253
255
255
255
0
0
0
0
0
0
255
255
255
254
254
254
253
253
253
255
255
255
255
255
255
0
0
0
0
0
0
255
255
255
255
255
255
252
252
252
0
0
0
1
1
1
254
254
254
255
255
255
0
0
0
2
2
2
254
254
254
255
255
255
0
0
0
0
0
0
255
255
255
0
0
0
1
1
1
0
0
0
255
255
255
255
255
255
0
0
0
0
0
0
204
204
204
253
253
253
1
1
1
0
0
0
0
0
0
255
255
255
0
0
0
0
0
0
0
0
0
255
255
255
0
0
0
0
0
0
149
149
149
255
255
255
255
255
255
0
0
0
255
255
255
251
251
251
252
252
252
0
0
0
0
0
0
255
255
255
255
255
255
0
0
0
1
1
1
253
253
253
253
253
253
1
1
1
0
0
0
253
253
253
255
255
255
0
0
0
0
0
0
255
255
255
255
255
255
0
0
0
0
0
0
255
255
255
255
255
255
253
253
253
0
0
0
1
1
1
0
0
0
255
255
255
253
253
253
1
1
1
1
1
1
255
255
255
253
253
253
1
1
1
0
0
0
255
255
255
254
254
254
255
255
255
0
0
0
255
255
255
255
255
255
0
0
0
0
0
0
254
254
254
255
255
255
0
0
0
1
1
1
254
254
254
255
255
255
0
0
0
0
0
0
0
0
0
255
255
255
0
0
0
0
0
0
1
1
1
254
254
254
254
254
254
0
0
0
0
0
0
255
255
255
254
254
254
1
1
1
254
254
254
253
253
253
255
255
255
1
1
1
255
255
255
253
253
253
254
254
254
1
1
1
0
0
0
255
255
255
255
255
255
0
0
0
0
0
0
255
255
255
255
255
255
0
0
0
1
1
1
255
255
255
255
255
255
0
0
0
1
1
1
254
254
254
255
255
255
0
0
0
255
255
255
255
255
255
0
0
0
0
0
0
255
255
255
253
253
253
0
0
0
1
1
1
254
254
254
255
255
255
0
0
0
0
0
0
255
255
255
255
255
255
254
254
254
1
1
1
253
253
253
255
255
255
254
254
254
1
1
1
253
253
253
255
255
255
0
0
0
0
0
0
252
252
252
255
255
255
0
0
0
0
0
0
1
1
1
253
253
253
0
0
0
0
0
0
0
0
0
255
255
255
255
255
255
1
1
1
0
0
0
255
255
255
255
255
255
0
0
0
253
253
253
255
255
255
253
253
253
0
0
0
254
254
254
255
255
255
254
254
254
0
0
0
0
0
0
255
255
255
255
255
255
0
0
0
0
0
0
255
255
255
253
253
253
0
0
0
0
0
0
255
255
255
255
255
255
255
255
255
0
0
0
253
253
253
255
255
255
0
0
0
255
255
255
255
255
255
0
0
0
1
1
1
253
253
253
255
255
255
255
255
255
0
0
0
0
0
0
255
255
255
255
255
255
0
0
0
0
0
0
254
254
254
255
255
255
0
0
0
0
0
0
255
255
255
255
255
255
255
255
255
0
0
0
252
252
252
255
255
255
0
0
0
2
2
2
0
0
0
254
254
254
1
1
1
0
0
0
0
0
0
255
255
255
0
0
0
0
0
0
1
1
1
253
253
253
0
0
0
0
0
0
0
0
0
255
255
255
253
253
253
0
0
0
255
255
255
254
254
254
254
254
254
1
1
1
0
0
0
255
255
255
255
255
255
0
0
0
0
0
0
253
253
253
255
255
255
0
0
0
0
0
0
255
255
255
255
255
255
0
0
0
1
1
1
255
255
255
255
255
255
218
218
218
1
1
1
253
253
253
255
255
255
79
79
79
0
0
0
0
0
0
0
0
0
253
253
253
252
252
252
3
3
3
0
0
0
253
253
253
255
255
255
0
0
0
1
1
1
255
255
255
255
255
255
0
0
0
0
0
0
255
255
255
252
252
252
0
0
0
0
0
0
255
255
255
255
255
255
0
0
0
1
1
1
253
253
253
255
255
255
0
0
0
0
0
0
255
255
255
255
255
255
1
1
1
0
0
0
255
255
255
255
255
255
254
254
254
0
0
0
255
255
255
255
255
255
254
254
254
1
1
1
255
255
255
255
255
255
255
255
255
0
0
0
254
254
254
255
255
255
255
255
255
2
2
2
0
0
0
253
253
253
206
206
206
0
0
0
2
2
2
253
253
253
255
255
255
0
0
0
0
0
0
254
254
254
255
255
255
0
0
0
0
0
0
254
254
254
255
255
255
0
0
0
255
255
255
255
255
255
0
0
0
0
0
0
255
255
255
253
253
253
255
255
255
0
0
0
1
1
1
255
255
255
253
253
253
0
0
0
0
0
0
255
255
255
255
255
255
254
254
254
0
0
0
255
255
255
255
255
255
253
253
253
0
0
0
255
255
255
255
255
255
253
253
253
0
0
0
1
1
1
253
253
253
0
0
0
1
1
1
0
0
0
253
253
253
1
1
1
0
0
0
0
0
0
255
255
255
255
255
255
0
0
0
0
0
0
253
253
253
255
255
255
0
0
0
255
255
255
255
255
255
255
255
255
0
0
0
0
0
0
254
254
254
255
255
255
0
0
0
1
1
1
255
255
255
255
255
255
1
1
1
0
0
0
253
253
253
255
255
255
255
255
255
0
0
0
255
255
255
255
255
255
145
144
145
0
0
0
253
253
253
255
255
255
204
204
204
0
0
0
2
2
2
0
0
0
252
252
252
255
255
255
0
0
0
0
0
0
254
254
254
255
255
255
1
1
1
1
1
1
255
255
255
249
249
249
255
255
255
1
1
1
220
220
220
254
254
254
255
255
255
3
3
3
0
0
0
255
255
255
255
255
255
0
0
0
0
0
0
252
252
252
255
255
255
0
0
0
0
0
0
255
255
255
255
255
255
0
0
0
0
0
0
254
254
254
255
255
255
16
16
16
0
0
0
254
254
254
255
255
255
0
0
0
2
2
2
254
254
254
254
254
254
0
0
0
0
0
0
255
255
255
255
255
255
0
0
0
0
0
0
255
255
255
255
255
255
0
0
0
0
0
0
254
254
254
255
255
255
252
252
252
0
0
0
255
255
255
255
255
255
254
254
254
0
0
0
0
0
0
255
255
255
252
252
252
77
77
77
1
1
1
0
0
0
1
1
1
255
255
255
255
255
255
0
0
0
1
1
1
255
255
255
253
253
253
0
0
0
0
0
0
255
255
255
255
255
255
0
0
0
0
0
0
255
255
255
254
254
254
0
0
0
0
0
0
255
255
255
253
253
253
0
0
0
0
0
0
0
0
0
255
255
255
0
0
0
0
0
0
2
2
2
252
252
252
0
0
0
0
0
0
255
255
255
254
254
254
255
255
255
0
0
0
255
255
255
255
255
255
254
254
254
0
0
0
255
255
255
253
253
253
255
255
255
0
0
0
1
1
1
251
251
251
253
253
253
2
2
2
0
0
0
252
252
252
255
255
255
0
0
0
1
1
1
251
251
251
255
255
255
1
1
1
0
0
0
253
253
253
253
253
253
0
0
0
0
0
0
253
253
253
255
255
255
0
0
0
251
251
251
254
254
254
1
1
1
0
0
0
253
253
253
255
255
255
255
255
255
0
0
0
1
1
1
255
255
255
255
255
255
1
1
1
0
0
0
255
255
255
254
254
254
254
254
254
0
0
0
255
255
255
255
255
255
255
255
255
0
0
0
255
255
255
255
255
255
0
0
0
0
0
0
253
253
253
255
255
255
0
0
0
0
0
0
1
1
1
254
254
254
255
255
255
0
0
0
0
0
0
255
255
255
255
255
255
0
0
0
0
0
0
255
255
255
253
253
253
0
0
0
241
241
241
252
252
252
255
255
255
0
0
0
4
4
4
255
255
255
252
252
252
0
0
0
0
0
0
255
255
255
254
254
254
0
0
0
4
4
4
253
253
253
254
254
254
253
253
253
1
1
1
255
255
255
255
255
255
255
255
255
0
0
0
253
253
253
255
255
255
255
255
255
253
253
253
0
0
0
1
1
1
255
255
255
253
253
253
0
0
0
1
1
1
253
253
253
255
255
255
0
0
0
0
0
0
253
253
253
255
255
255
1
1
1
0
0
0
255
255
255
253
253
253
0
0
0
0
0
0
0
0
0
255
255
255
0
0
0
0
0
0
0
0
0
255
255
255
0
0
0
0
0
0
0
0
0
255
255
255
255
255
255
0
0
0
154
154
154
255
255
255
255
255
255
0
0
0
254
254
254
255
255
255
253
253
253
0
0
0
1
1
1
252
252
252
255
255
255
0
0
0
0
0
0
252
252
252
255
255
255
0
0
0
0
0
0
255
255
255
252
252
252
0
0
0
0
0
0
253
253
253
255
255
255
1
1
1
1
1
1
252
252
252
255
255
255
0
0
0
0
0
0
0
0
0
255
255
255
0
0
0
0
0
0
1
1
1
0
0
0
0
0
0
255
255
255
255
255
255
0
0
0
0
0
0
255
255
255
254
254
254
0
0
0
0
0
0
253
253
253
255
255
255
255
255
255
255
255
255
254
254
254
255
255
255
255
255
255
0
0
0
2
2
2
253
253
253
255
255
255
1
1
1
0
0
0
254
254
254
255
255
255
0
0
0
246
246
246
254
254
254
255
255
255
0
0
0
0
0
0
255
255
255
255
255
255
255
255
255
0
0
0
255
255
255
253
253
253
255
255
255
0
0
0
255
255
255
255
255
255
255
255
255
0
0
0
255
255
255
253
253
253
0
0
0
1
1
1
254
254
254
255
255
255
137
137
137
0
0
0
253
253
253
255
255
255
254
254
254
255
255
255
0
0
0
255
255
255
255
255
255
0
0
0
0
0
0
255
255
255
255
255
255
255
255
255
255
255
255
0
0
0
0
0
0
254
254
254
255
255
255
255
255
255
0
0
0
0
0
0
255
255
255
255
255
255
0
0
0
2
2
2
255
255
255
252
252
252
224
223
224
0
0
0
253
253
253
255
255
255
1
1
1
0
0
0
255
255
255
253
253
253
0
0
0
0
0
0
255
255
255
255
255
255
1
1
1
0
0
0
255
255
255
252
252
252
1
1
1
1
1
1
0
0
0
255
255
255
252
252
252
1
1
1
0
0
0
255
255
255
255
255
255
0
0
0
254
254
254
255
255
255
255
255
255
1
1
1
249
249
249
255
255
255
253
253
253
0
0
0
254
254
254
254
254
254
253
253
253
4
4
4
1
1
1
252
252
252
255
255
255
0
0
0
0
0
0
252
252
252
255
255
255
0
0
0
0
0
0
255
255
255
255
255
255
255
255
255
253
253
253
0
0
0
1
1
1
254
254
254
255
255
255
255
255
255
0
0
0
0
0
0
253
253
253
255
255
255
2
2
2
0
0
0
253
253
253
255
255
255
0
0
0
0
0
0
255
255
255
0
0
0
0
0
0
0
0
0
255
255
255
1
1
1
0
0
0
1
1
1
255
255
255
254
254
254
0
0
0
0
0
0
253
253
253
255
255
255
0
0
0
0
0
0
2
2
2
254
254
254
1
1
1
0
0
0
255
255
255
255
255
255
0
0
0
0
0
0
254
254
254
255
255
255
0
0
0
0
0
0
255
255
255
255
255
255
253
253
253
1
1
1
0
0
0
255
255
255
255
255
255
0
0
0
4
4
4
255
255
255
0
0
0
0
0
0
0
0
0
255
255
255
0
0
0
0
0
0
0
0
0
254
254
254
0
0
0
0
0
0
2
2
2
0
0
0
0
0
0
254
254
254
253
253
253
1
1
1
254
254
254
254
254
254
255
255
255
253
253
253
0
0
0
254
254
254
255
255
255
62
62
62
0
0
0
255
255
255
255
255
255
0
0
0
1
1
1
255
255
255
253
253
253
253
253
253
2
2
2
0
0
0
253
253
253
255
255
255
0
0
0
3
3
3
255
255
255
253
253
253
0
0
0
255
255
255
254
254
254
255
255
255
0
0
0
253
253
253
254
254
254
255
255
255
0
0
0
254
254
254
255
255
255
255
255
255
0
0
0
255
255
255
254
254
254
253
253
253
253
253
253
0
0
0
254
254
254
255
255
255
254
254
254
2
2
2
253
253
253
253
253
253
0
0
0
1
1
1
253
253
253
253
253
253
0
0
0
0
0
0
255
255
255
255
255
255
252
252
252
255
255
255
253
253
253
0
0
0
0
0
0
1
1
1
254
254
254
255
255
255
0
0
0
1
1
1
253
253
253
255
255
255
0
0
0
1
1
1
255
255
255
254
254
254
0
0
0
0
0
0
255
255
255
254
254
254
253
253
253
0
0
0
255
255
255
254
254
254
0
0
0
0
0
0
255
255
255
255
255
255
0
0
0
0
0
0
0
0
0
253
253
253
3
3
3
0
0
0
1
1
1
255
255
255
2
2
2
0
0
0
251
251
251
253
253
253
255
255
255
0
0
0
255
255
255
253
253
253
255
255
255
0
0
0
184
184
184
255
255
255
255
255
255
0
0
0
1
1
1
253
253
253
253
253
253
0
0
0
0
0
0
254
254
254
255
255
255
0
0
0
0
0
0
255
255
255
254
254
254
255
255
255
0
0
0
253
253
253
255
255
255
255
255
255
0
0
0
1
1
1
255
255
255
0
0
0
0
0
0
253
253
253
255
255
255
253
253
253
253
253
253
255
255
255
1
1
1
253
253
253
255
255
255
254
254
254
2
2
2
253
253
253
255
255
255
253
253
253
0
0
0
255
255
255
255
255
255
255
255
255
62
62
62
255
255
255
251
251
251
184
184
184
253
253
253
255
255
255
255
255
255
255
255
255
0
0
0
1
1
1
252
252
252
253
253
253
0
0
0
1
1
1
255
255
255
255
255
255
195
195
195
255
255
255
254
254
254
255
255
255
0
0
0
253
253
253
255
255
255
254
254
254
0
0
0
255
255
255
253
253
253
255
255
255
81
81
81
0
0
0
255
255
255
255
255
255
250
250
250
0
0
0
255
255
255
255
255
255
255
255
255
0
0
0
254
254
254
255
255
255
255
255
255
0
0
0
0
0
0
0
0
0
255
255
255
255
255
255
1
1
1
0
0
0
255
255
255
255
255
255
255
255
255
255
255
255
0
0
0
254
254
254
254
254
254
3
3
3
0
0
0
255
255
255
253
253
253
0
0
0
0
0
0
255
255
255
253
253
253
0
0
0
0
0
0
253
253
253
255
255
255
0
0
0
255
255
255
252
252
252
253
253
253
0
0
0
0
0
0
255
255
255
253
253
253
255
255
255
1
1
1
254
254
254
255
255
255
252
252
252
1
1
1
253
253
253
252
252
252
3
3
3
0
0
0
255
255
255
255
255
255
0
0
0
0
0
0
255
255
255
254
254
254
254
254
254
0
0
0
0
0
0
254
254
254
255
255
255
0
0
0
0
0
0
254
254
254
253
253
253
0
0
0
0
0
0
255
255
255
253
253
253
0
0
0
5
5
5
0
0
0
0
0
0
255
255
255
255
255
255
254
254
254
1
1
1
1
1
1
0
0
0
0
0
0
0
0
0
0
0
0
1
1
1
0
0
0
0
0
0
1
1
1
0
0
0
0
0
0
0
0
0
0
0
0
1
1
1
0
0
0
0
0
0
0
0
0
0
0
0
0
0
0
0
0
0
0
0
0
0
0
0
0
0
0
0
0
0
0
0
0
0
0
0
0
0
0
0
0
0
0
0
0
0
0
0
0
0
0
1
1
1
0
0
0
0
0
0
1
1
1
0
0
0
0
0
0
2
2
2
0
0
0
1
1
1
0
0
0
0
0
0
0
0
0
0
0
0
0
0
0
1
1
1
0
0
0
0
0
0
0
0
0
0
0
0
0
0
0
1
1
1
0
0
0
0
0
0
0
0
0
0
0
0
0
0
0
253
253
253
255
255
255
255
255
255
